<?xml version="1.0" standalone="no"?>
<!DOCTYPE svg PUBLIC "-//W3C//DTD SVG 20010904//EN"
 "http://www.w3.org/TR/2001/REC-SVG-20010904/DTD/svg10.dtd">
<svg version="1.0" xmlns="http://www.w3.org/2000/svg"
 width="256.000000pt" height="256.000000pt" viewBox="0 0 256.000000 256.000000"
 preserveAspectRatio="xMidYMid meet">

<g transform="translate(0.000000,256.000000) scale(0.100000,-0.100000)"
fill="#ffffff" stroke="none">
<path d="M943 2438 c-23 -24 -95 -179 -268 -578 -130 -299 -250 -570 -266
-602 -31 -60 -43 -70 -124 -99 -46 -16 -50 -20 -50 -51 0 -31 2 -33 30 -31 84
6 355 6 393 -1 l42 -8 0 39 0 39 -60 12 c-33 7 -71 23 -85 35 l-25 22 19 60
c10 33 40 108 66 168 l47 107 220 0 219 0 15 -35 c7 -19 14 -42 14 -52 0 -10
-124 -310 -275 -667 -239 -562 -296 -712 -256 -670 8 8 221 505 451 1049 60
144 148 351 399 940 45 105 81 196 81 203 0 46 -38 -24 -131 -241 -58 -135
-108 -249 -111 -252 -3 -3 -24 40 -46 97 -63 158 -198 490 -212 521 -18 37
-48 35 -87 -5z m-25 -450 c114 -270 133 -318 127 -327 -4 -7 -57 -11 -139 -11
-141 0 -196 6 -196 22 0 17 163 388 170 388 4 0 21 -33 38 -72z"/>
<path d="M1587 1712 c-18 -18 -116 -231 -273 -593 -135 -310 -257 -584 -271
-607 -18 -33 -38 -50 -76 -68 -29 -13 -60 -24 -70 -24 -15 0 -18 -7 -15 -37
l3 -38 80 5 c44 3 109 5 145 5 36 0 103 -2 150 -5 l85 -5 0 34 c0 34 -1 35
-60 48 -87 20 -109 37 -102 79 6 33 71 204 105 274 l17 35 217 3 217 2 16 -30
c26 -51 115 -282 115 -300 0 -27 -36 -52 -92 -65 -51 -11 -53 -13 -53 -46 0
-33 1 -34 40 -32 57 3 493 3 535 0 34 -2 35 -1 35 32 0 33 -2 35 -53 47 -91
20 -99 31 -183 240 -42 104 -147 365 -234 579 -87 215 -166 410 -175 433 -27
69 -59 80 -103 34z m-47 -392 c0 -6 34 -91 76 -190 44 -104 74 -186 70 -196
-5 -14 -26 -16 -165 -13 -88 2 -163 7 -167 11 -6 6 107 281 153 371 13 27 33
37 33 17z"/>
</g>
</svg>
